<svg width="169" height="35" viewBox="0 0 169 35" fill="none" xmlns="http://www.w3.org/2000/svg">
<g id="Logo">
<path id="Path 1" d="M4.23915 0.958496V11.8393L-2.67029e-05 14.1021V34.68H4.24309V15.3386L8.66027 12.8415V3.81007H14.2241V9.84502L23.402 4.55955L42.331 15.6306V31.6127H16.6328V21.0816H28.0481V28.3236H31.8343V18.2101H12.5032V34.6807H46.4039V13.9235L23.0576 0.959188L17.9526 3.81007V0.959188L4.23915 0.958496Z" fill="#FF6F06"/>
<g id="Group 1">
<path id="Path 4" d="M67.0019 32.4381C66.3291 32.6069 65.6215 32.6969 64.9072 32.7047C63.8903 32.7378 62.895 32.4914 62.1326 32.0177C61.7828 31.7865 61.5078 31.5053 61.3262 31.193C61.1446 30.8807 61.0606 30.5446 61.0799 30.2076C61.0608 29.8663 61.144 29.526 61.3244 29.2089C61.5047 28.8917 61.7781 28.6047 62.1268 28.3665C62.4943 28.1277 62.9257 27.9425 63.3959 27.8215C63.8661 27.7005 64.3658 27.6462 64.8661 27.6617C65.56 27.6676 66.2495 27.7409 66.9148 27.8795V28.5582C66.2619 28.3443 65.5531 28.2274 64.8329 28.2147C64.4874 28.2079 64.144 28.2535 63.8259 28.3483C63.5078 28.4432 63.2226 28.585 62.9897 28.7643C62.499 29.1452 62.2396 29.6456 62.2667 30.1588C62.254 30.4192 62.3202 30.6785 62.4609 30.9196C62.6015 31.1607 62.8134 31.3781 63.0826 31.5575C63.6523 31.9267 64.4074 32.1222 65.1821 32.1009C65.8062 32.0846 66.4217 31.9933 67.0019 31.8309V32.4381ZM70.1052 30.1808C70.0559 29.5168 70.3576 28.8633 70.9524 28.3459C71.2348 28.119 71.5861 27.9395 71.9805 27.8206C72.3748 27.7017 72.8022 27.6464 73.231 27.659C73.6598 27.6464 74.0871 27.7017 74.4815 27.8206C74.8758 27.9395 75.2272 28.119 75.5095 28.3459C76.1044 28.8633 76.4061 29.5168 76.3568 30.1808C76.4071 30.8451 76.1068 31.4991 75.5135 32.0177C75.2311 32.2447 74.8798 32.4242 74.4854 32.5431C74.091 32.662 73.6637 32.7172 73.2349 32.7047C72.8061 32.7172 72.3787 32.662 71.9844 32.5431C71.59 32.4242 71.2387 32.2447 70.9563 32.0177C70.3602 31.4999 70.0571 30.8458 70.1052 30.1808ZM71.287 30.1808C71.2427 30.6908 71.4183 31.1983 71.7909 31.6372C71.9478 31.802 72.1625 31.9357 72.4144 32.0254C72.6663 32.115 72.9469 32.1576 73.229 32.1489C73.5115 32.1575 73.7925 32.1149 74.0448 32.0253C74.2972 31.9356 74.5125 31.802 74.6701 31.6372C75.0444 31.1987 75.2211 30.691 75.1769 30.1808C75.2208 29.6717 75.0441 29.1651 74.6701 28.7279C74.5125 28.563 74.2972 28.4294 74.0448 28.3398C73.7925 28.2502 73.5115 28.2076 73.229 28.2161C72.9469 28.2075 72.6663 28.25 72.4144 28.3397C72.1625 28.4293 71.9478 28.563 71.7909 28.7279C71.4188 29.1656 71.2432 29.6719 71.287 30.1808ZM79.8387 32.5852V27.7634H80.8943L84.2041 31.258H84.2158V27.7634H85.1218V32.5879H84.0926L80.7613 29.0638H80.7447V32.5879L79.8387 32.5852ZM93.9386 27.8905V28.5314C93.2462 28.3386 92.5112 28.2322 91.7667 28.2168C90.7649 28.2168 90.264 28.4416 90.264 28.8914C90.2601 28.975 90.2835 29.0581 90.3323 29.1344C90.3811 29.2107 90.4541 29.2782 90.5457 29.3317C90.862 29.4874 91.2142 29.6036 91.5867 29.6752L92.296 29.8401L92.971 29.9939C94.0146 30.239 94.5364 30.6539 94.5364 31.2387C94.5424 31.4497 94.472 31.6583 94.3316 31.8449C94.1913 32.0316 93.9857 32.1901 93.7341 32.3056C93.0966 32.5915 92.3481 32.731 91.5925 32.7047C90.7754 32.6844 89.9647 32.5952 89.178 32.4388V31.7072C89.9446 31.9649 90.7754 32.1152 91.6239 32.1496C92.081 32.1653 92.5352 32.0905 92.9348 31.9339C93.0832 31.8774 93.207 31.7937 93.2932 31.6917C93.3793 31.5898 93.4245 31.4734 93.424 31.3548C93.4284 31.2705 93.4041 31.1867 93.353 31.1104C93.302 31.034 93.2257 30.9673 93.1305 30.9158C92.7599 30.7491 92.3573 30.6202 91.935 30.5332L91.1924 30.3532C90.6318 30.2385 90.1089 30.0473 89.6535 29.7906C89.5089 29.6909 89.3958 29.5709 89.3216 29.4384C89.2474 29.306 89.2138 29.1641 89.223 29.0219C89.2093 28.8293 89.2623 28.6373 89.3775 28.4622C89.4927 28.2872 89.6666 28.1344 89.8844 28.0169C90.4344 27.7565 91.092 27.6316 91.754 27.6617C92.4932 27.6713 93.2276 27.7482 93.9386 27.8905ZM100.419 32.5879V28.3329H97.6456V27.7778H104.309V28.3329H101.529V32.5879H100.419ZM107.789 32.5879V27.7792H109.809C110.4 27.7559 110.991 27.8023 111.56 27.9166C111.87 27.9816 112.141 28.1169 112.33 28.3013C112.519 28.4856 112.617 28.7088 112.606 28.936C112.622 29.236 112.494 29.531 112.243 29.7741C111.912 30.045 111.496 30.2587 111.028 30.3986L113.521 32.5879H112.179L109.899 30.5861H108.898V32.5879H107.789ZM108.898 30.031H109.485C109.985 30.0498 110.481 29.9578 110.903 29.7679C111.069 29.6901 111.203 29.5842 111.295 29.46C111.386 29.3358 111.432 29.1974 111.427 29.0576C111.445 28.9462 111.417 28.8336 111.348 28.7326C111.279 28.6316 111.17 28.5464 111.035 28.4868C110.574 28.3595 110.078 28.3069 109.583 28.3329H108.898L108.898 30.031ZM116.864 27.7778H117.974V30.6988C117.929 31.0856 118.056 31.4726 118.337 31.8068C118.478 31.9265 118.659 32.0202 118.863 32.0801C119.068 32.1399 119.29 32.164 119.511 32.1503C119.74 32.1654 119.971 32.1422 120.186 32.0825C120.4 32.0228 120.591 31.9283 120.743 31.8068C121.036 31.4688 121.167 31.0743 121.12 30.6802V27.7778H122.083V30.571C122.126 31.0152 122.016 31.4602 121.762 31.868C121.538 32.1416 121.209 32.3653 120.813 32.5133C120.416 32.6613 119.968 32.7277 119.52 32.7047C119.155 32.7261 118.788 32.693 118.442 32.6078C118.096 32.5226 117.78 32.387 117.514 32.2101C117.033 31.7779 116.801 31.2345 116.864 30.6878V27.7778ZM131.753 32.4381C131.079 32.6072 130.37 32.6972 129.654 32.7047C128.636 32.7384 127.64 32.4919 126.877 32.0177C126.527 31.7867 126.252 31.5056 126.071 31.1936C125.889 30.8816 125.805 30.5458 125.824 30.209C125.805 29.8677 125.888 29.5274 126.068 29.2102C126.249 28.8931 126.522 28.6061 126.871 28.3679C127.238 28.1291 127.67 27.9438 128.14 27.8228C128.61 27.7019 129.11 27.6476 129.61 27.6631C130.304 27.669 130.993 27.7423 131.659 27.8809V28.5596C131.006 28.3457 130.297 28.2287 129.577 28.2161C129.231 28.2093 128.888 28.2548 128.57 28.3497C128.252 28.4445 127.966 28.5864 127.734 28.7657C127.243 29.1466 126.984 29.6469 127.011 30.1602C126.998 30.4206 127.064 30.6799 127.205 30.921C127.345 31.1621 127.557 31.3795 127.827 31.5588C128.396 31.9282 129.151 32.1236 129.926 32.1022C130.553 32.0867 131.172 31.9954 131.755 31.8323L131.753 32.4381ZM137.417 32.5879V28.3329H134.644V27.7778H141.307V28.3329H138.527V32.5879H137.417ZM144.725 32.5879V32.0328H146.667V28.3329H144.725V27.7778H149.715V28.3329H147.776V32.0328H149.717V32.5879H144.725ZM153.351 30.1835C153.301 29.5195 153.603 28.8661 154.198 28.3487C154.48 28.1217 154.832 27.9422 155.226 27.8233C155.62 27.7044 156.048 27.6492 156.476 27.6617C156.905 27.6492 157.333 27.7044 157.727 27.8233C158.121 27.9422 158.473 28.1217 158.755 28.3487C159.35 28.8661 159.651 29.5195 159.602 30.1835C159.65 30.8473 159.349 31.5002 158.755 32.0177C158.473 32.2447 158.121 32.4242 157.727 32.5431C157.333 32.662 156.905 32.7172 156.476 32.7047C156.048 32.7172 155.62 32.662 155.226 32.5431C154.832 32.4242 154.48 32.2447 154.198 32.0177C153.603 31.4995 153.301 30.8455 153.351 30.1808V30.1835ZM154.532 30.1835C154.488 30.6935 154.664 31.201 155.036 31.6399C155.193 31.8048 155.408 31.9385 155.66 32.0281C155.912 32.1178 156.192 32.1603 156.474 32.1517C156.757 32.1602 157.038 32.1176 157.29 32.028C157.543 31.9384 157.758 31.8048 157.916 31.6399C158.29 31.2015 158.466 30.6938 158.422 30.1835C158.466 29.6744 158.289 29.1679 157.916 28.7306C157.758 28.5658 157.543 28.4321 157.29 28.3425C157.038 28.2529 156.757 28.2103 156.474 28.2188C156.192 28.2102 155.912 28.2528 155.66 28.3424C155.408 28.432 155.193 28.5657 155.036 28.7306C154.665 29.1676 154.489 29.6729 154.532 30.1808V30.1835ZM163.084 32.5879V27.7634H164.136L167.446 31.258H167.457V27.7634H168.363V32.5879H167.339L164.007 29.0638H163.99V32.5879H163.084Z" fill="#666666"/>
<path id="Path 5" d="M61.0815 5.82812H71.2906C73.4788 5.82812 75.0901 6.1945 76.1246 6.92726C76.6789 7.37222 77.1014 7.89021 77.3677 8.45103C77.6339 9.01185 77.7385 9.60427 77.6752 10.1938C77.7597 11.1659 77.4402 12.1344 76.7556 12.9814C76.0658 13.6637 75.0233 14.1295 73.8509 14.2791V14.3801C74.4733 14.4391 75.0728 14.5843 75.6146 14.8073C76.1564 15.0303 76.6297 15.3266 77.007 15.6791C77.7008 16.5592 78.02 17.5606 77.9267 18.5644C78.0492 19.8013 77.5095 21.0258 76.4132 21.9978C75.4029 22.7883 73.6953 23.1835 71.2906 23.1835H61.0815V5.82812ZM69.8113 13.0179C70.7118 13.0851 71.6163 12.9192 72.355 12.5514C72.9062 12.0637 73.1592 11.4423 73.0584 10.8237C73.0894 10.3544 73.004 9.88484 72.806 9.43604C72.7247 9.2878 72.5988 9.15361 72.4368 9.04265C72.2749 8.93168 72.0808 8.84655 71.8678 8.79305C71.204 8.64601 70.5086 8.58206 69.8133 8.60413H65.6631V13.0185L69.8113 13.0179ZM69.9913 20.4089C70.6866 20.4309 71.3821 20.367 72.0459 20.2199C72.264 20.163 72.4621 20.0738 72.627 19.9585C72.7919 19.8432 72.9197 19.7044 73.0017 19.5515C73.211 19.0958 73.3027 18.6175 73.2727 18.1391C73.3047 17.6474 73.2069 17.1557 72.9841 16.689C72.8971 16.5326 72.7654 16.3903 72.5971 16.271C72.4289 16.1517 72.2276 16.0578 72.0057 15.9951C71.3563 15.8393 70.671 15.7708 69.9855 15.7932H65.6631V20.4095L69.9913 20.4089ZM99.1754 5.82812V15.4895C99.2495 17.1674 99.0682 18.846 98.6343 20.4968C98.5088 20.9657 98.2365 21.4092 97.8372 21.7953C97.4379 22.1814 96.9216 22.5004 96.3254 22.7294C94.5206 23.2479 92.5717 23.4722 90.6256 23.3855C88.6732 23.4712 86.7183 23.247 84.9062 22.7294C84.3045 22.5007 83.7833 22.1804 83.3808 21.792C82.9782 21.4035 82.7045 20.9568 82.5797 20.4844C82.1473 18.8377 81.966 17.1633 82.0387 15.4895V5.82812H86.6565V16.4987C86.6201 17.4262 86.6924 18.3542 86.8727 19.2733C86.9072 19.4923 87.0151 19.7025 87.1875 19.8866C87.36 20.0707 87.592 20.2236 87.8647 20.3326C88.747 20.5591 89.6874 20.6528 90.6246 20.6074C91.5619 20.6528 92.5022 20.5591 93.3845 20.3326C93.6555 20.2263 93.886 20.0755 94.0563 19.8933C94.2266 19.711 94.3318 19.5026 94.3629 19.2857C94.5285 18.3613 94.5939 17.4294 94.5585 16.498V5.82812H99.1754ZM104.153 23.1835V5.82812H108.771V23.1835H104.153ZM113.965 23.1835V5.82812H118.547V20.3079H127.313V23.1835H113.965ZM130.667 5.82812H138.134C141.188 5.82812 143.359 6.06787 144.645 6.54737C145.281 6.78493 145.83 7.12262 146.249 7.53402C146.669 7.94542 146.947 8.41937 147.061 8.91876C147.462 10.7674 147.625 12.6374 147.551 14.5065C147.625 16.3756 147.462 18.2456 147.061 20.0942C146.946 20.5934 146.669 21.0672 146.25 21.4785C145.831 21.8897 145.282 22.2274 144.646 22.4649C143.359 22.9444 141.189 23.1842 138.135 23.1842H130.667V5.82812ZM137.918 20.4089C139.116 20.461 140.318 20.3681 141.471 20.1341C141.821 19.9926 142.114 19.7911 142.322 19.5483C142.53 19.3056 142.647 19.0296 142.662 18.7464C142.893 17.34 142.983 15.9239 142.933 14.5086C142.983 13.0932 142.893 11.6772 142.662 10.2707C142.647 9.98749 142.53 9.71155 142.322 9.4688C142.114 9.22606 141.821 9.02449 141.471 8.88304C140.318 8.64907 139.116 8.55612 137.918 8.60825H135.249V20.4089H137.918ZM156.387 23.1835V17.0283L149.064 5.83087H153.858L158.692 13.575H158.944L163.706 5.83087H168.359L161 17.0283V23.1835H156.387Z" fill="#171818"/>
</g>
</g>
</svg>
